<svg xmlns="http://www.w3.org/2000/svg" width="39.981" height="47.28" viewBox="0 0 39.981 47.28">
  <path id="apple" d="M36.5,56.442c-.021-3.79,1.693-6.65,5.163-8.756-1.941-2.778-4.874-4.306-8.746-4.605-3.666-.289-7.672,2.137-9.138,2.137-1.549,0-5.1-2.034-7.889-2.034C10.123,43.276,4,47.778,4,56.937a25.737,25.737,0,0,0,1.487,8.385C6.809,69.112,11.579,78.4,16.556,78.25c2.6-.062,4.44-1.848,7.827-1.848,3.284,0,4.987,1.848,7.889,1.848,5.018-.072,9.335-8.519,10.594-12.319-6.733-3.17-6.371-9.293-6.371-9.49ZM30.651,39.486A9.726,9.726,0,0,0,33.13,32a10.949,10.949,0,0,0-7.011,3.6,9.878,9.878,0,0,0-2.643,7.424C26.17,43.235,28.627,41.851,30.651,39.486Z" transform="translate(-3.5 -31.472)" stroke="#707070" stroke-linecap="round" stroke-width="1"/>
</svg>
