<svg xmlns="http://www.w3.org/2000/svg" width="28.667" height="22.933" viewBox="0 0 28.667 22.933">
  <path id="eye-slash" d="M28.388,21.1,1.6.157A.717.717,0,0,0,.6.268L.148.828A.717.717,0,0,0,.259,1.836L27.044,22.775a.717.717,0,0,0,1.007-.112L28.5,22.1a.717.717,0,0,0-.112-1.008ZM13.284,6.56l6.037,4.72a4.995,4.995,0,0,0-6.037-4.72Zm2.079,9.812-6.037-4.72a5,5,0,0,0,5,4.83,5.061,5.061,0,0,0,1.04-.11ZM14.324,5.016a12.184,12.184,0,0,1,10.657,6.45,12.789,12.789,0,0,1-1.971,2.7l1.69,1.321a14.947,14.947,0,0,0,2.369-3.364,1.449,1.449,0,0,0,0-1.307A14.372,14.372,0,0,0,14.324,2.866a13.828,13.828,0,0,0-4.686.843l2.079,1.625A11.757,11.757,0,0,1,14.324,5.016Zm0,12.9a12.185,12.185,0,0,1-10.657-6.45A12.786,12.786,0,0,1,5.64,8.77L3.949,7.449A14.942,14.942,0,0,0,1.58,10.812a1.449,1.449,0,0,0,0,1.307,14.366,14.366,0,0,0,12.743,7.946,13.882,13.882,0,0,0,4.686-.843L16.931,17.6A11.78,11.78,0,0,1,14.324,17.916Z" transform="translate(0.01 0.001)"/>
</svg>
