<svg xmlns="http://www.w3.org/2000/svg" width="43.332" height="44.255" viewBox="0 0 43.332 44.255">
  <g id="google-color" transform="translate(0.286 -0.033)">
    <g id="Group_5" data-name="Group 5" transform="translate(0.214 0.533)">
      <g id="Group_4" data-name="Group 4" transform="translate(0 0)">
        <path id="Path_40" data-name="Path 40" d="M9.074,23.185a12.791,12.791,0,0,1,.65-4.015L2.435,13.6a21.774,21.774,0,0,0,0,19.155l7.285-5.577a12.8,12.8,0,0,1-.643-4" transform="translate(-0.214 -1.558)" fill="#fbbc05" stroke="#707070" stroke-linecap="round" stroke-width="1" fill-rule="evenodd"/>
        <path id="Path_41" data-name="Path 41" d="M22.061,9.381a12.532,12.532,0,0,1,7.974,2.851l6.3-6.292A21.645,21.645,0,0,0,2.623,12.58l7.289,5.566A12.763,12.763,0,0,1,22.061,9.381" transform="translate(-0.403 -0.533)" fill="#eb4335" stroke="#707070" stroke-linecap="round" stroke-width="1" fill-rule="evenodd"/>
        <path id="Path_42" data-name="Path 42" d="M22.061,37.121A12.763,12.763,0,0,1,9.912,28.356L2.623,33.921A21.593,21.593,0,0,0,22.061,45.969a20.639,20.639,0,0,0,14.111-5.39L29.253,35.23a13.4,13.4,0,0,1-7.193,1.891" transform="translate(-0.403 -2.714)" fill="#34a853" stroke="#707070" stroke-linecap="round" stroke-width="1" fill-rule="evenodd"/>
        <path id="Path_43" data-name="Path 43" d="M44.387,23.666a17.921,17.921,0,0,0-.492-3.932H23.714v8.356H35.33a9.74,9.74,0,0,1-4.424,6.465L37.825,39.9c3.976-3.69,6.562-9.188,6.562-16.237" transform="translate(-2.055 -2.038)" fill="#4285f4" stroke="#707070" stroke-linecap="round" stroke-width="1" fill-rule="evenodd"/>
      </g>
    </g>
  </g>
</svg>
