<svg xmlns="http://www.w3.org/2000/svg" width="26.863" height="18.133" viewBox="0 0 26.863 18.133">
  <path id="Icon_zocial-email" data-name="Icon zocial-email" d="M.072,20.6V5.674q0-.026.078-.492l8.782,7.512L.176,21.113a2.2,2.2,0,0,1-.1-.518ZM1.238,4.146a1.116,1.116,0,0,1,.44-.078H25.329a1.467,1.467,0,0,1,.466.078l-8.808,7.538-1.166.933-2.306,1.891-2.306-1.891-1.166-.933Zm.026,17.978L10.1,13.653l3.419,2.772,3.419-2.772,8.834,8.471a1.244,1.244,0,0,1-.44.078H1.678a1.173,1.173,0,0,1-.414-.078ZM18.1,12.694l8.756-7.512a1.546,1.546,0,0,1,.078.492V20.6a1.986,1.986,0,0,1-.078.518Z" transform="translate(-0.072 -4.068)"/>
</svg>
