<svg xmlns="http://www.w3.org/2000/svg" width="26.665" height="22.533" viewBox="0 0 26.665 22.533">
  <g id="statistics-svgrepo-com" transform="translate(0 -35.62)">
    <path id="Path_120" data-name="Path 120" d="M398.447,304.13h-2.328a.7.7,0,0,0-.7.7v5.557a.7.7,0,0,0,.7.7h2.328a.7.7,0,0,0,.7-.7v-5.557A.7.7,0,0,0,398.447,304.13Z" transform="translate(-372.483 -252.936)"/>
    <path id="Path_121" data-name="Path 121" d="M299.592,258.13h-2.328a.7.7,0,0,0-.7.7v8.225a.7.7,0,0,0,.7.7h2.328a.7.7,0,0,0,.7-.7v-8.225A.7.7,0,0,0,299.592,258.13Z" transform="translate(-279.362 -209.604)"/>
    <path id="Path_122" data-name="Path 122" d="M101.885,304.13H99.557a.7.7,0,0,0-.7.7v5.557a.7.7,0,0,0,.7.7h2.328a.7.7,0,0,0,.7-.7v-5.557A.7.7,0,0,0,101.885,304.13Z" transform="translate(-93.121 -252.936)"/>
    <path id="Path_123" data-name="Path 123" d="M3.03,258.13H.7a.7.7,0,0,0-.7.7v8.225a.7.7,0,0,0,.7.7H3.03a.7.7,0,0,0,.7-.7v-8.225A.7.7,0,0,0,3.03,258.13Z" transform="translate(0 -209.604)"/>
    <path id="Path_124" data-name="Path 124" d="M200.738,196.968H198.41a.7.7,0,0,0-.7.7v11.772a.7.7,0,0,0,.7.7h2.328a.7.7,0,0,0,.7-.7V197.67A.7.7,0,0,0,200.738,196.968Z" transform="translate(-186.241 -151.99)"/>
    <path id="Path_125" data-name="Path 125" d="M32.762,47.742a.872.872,0,0,0,.87-.87V44.06a.87.87,0,1,0-1.74,0v.7l-8.836-8.886A.87.87,0,0,0,21.722,36l-6.657,9.689L9.218,41.962a.87.87,0,0,0-.935,1.468l6.555,4.176a.87.87,0,0,0,1.184-.241l6.539-9.517L30.67,46h-.72a.87.87,0,1,0,0,1.74h2.812Z" transform="translate(-7.424)"/>
  </g>
</svg>
