<svg xmlns="http://www.w3.org/2000/svg" width="18.935" height="19.935" viewBox="0 0 18.935 19.935">
  <path id="thumbs-up.1" d="M3.846,8.722H.888A.912.912,0,0,0,0,9.656V19a.912.912,0,0,0,.888.934H3.846A.912.912,0,0,0,4.734,19V9.656A.912.912,0,0,0,3.846,8.722ZM2.367,18.378a.936.936,0,0,1,0-1.869.936.936,0,0,1,0,1.869ZM14.2,3.171c0,1.652-.96,2.578-1.231,3.681h3.762a2.268,2.268,0,0,1,2.2,2.262,2.9,2.9,0,0,1-.719,1.916l0,0a3.4,3.4,0,0,1-.344,3.094,3.2,3.2,0,0,1-.606,2.911,2.16,2.16,0,0,1-.227,1.738c-.755,1.142-2.626,1.158-4.208,1.158h-.105A10.207,10.207,0,0,1,8.3,18.7a5.609,5.609,0,0,0-1.947-.63.457.457,0,0,1-.436-.467V9.28a.479.479,0,0,1,.132-.332c1.465-1.524,2.1-3.138,3.3-4.4a4.843,4.843,0,0,0,.939-2.293c.164-.72.508-2.25,1.255-2.25C12.426,0,14.2.311,14.2,3.171Z" fill="#2450a6"/>
</svg>
